# Blender v2.93.4 OBJ File: 'ObjectiveEnv.blend'
# www.blender.org
mtllib Table.mtl
o Leg_Cube.008
v 32.388420 -0.399256 39.943161
v 32.388420 0.327451 39.456383
v 32.388420 -0.405043 39.817596
v 32.388420 0.321664 39.330818
v 32.487000 -0.399256 39.943161
v 32.487000 0.327451 39.456383
v 32.487000 -0.405043 39.817596
v 32.487000 0.321664 39.330818
vt 0.375000 0.000000
vt 0.625000 0.000000
vt 0.625000 0.250000
vt 0.375000 0.250000
vt 0.625000 0.500000
vt 0.375000 0.500000
vt 0.625000 0.750000
vt 0.375000 0.750000
vt 0.625000 1.000000
vt 0.375000 1.000000
vt 0.125000 0.500000
vt 0.125000 0.750000
vt 0.875000 0.500000
vt 0.875000 0.750000
vn -1.0000 0.0000 0.0000
vn 0.0000 -0.5565 -0.8308
vn 1.0000 0.0000 0.0000
vn 0.0000 0.5565 0.8308
vn 0.0000 -0.9989 0.0460
vn 0.0000 0.9989 -0.0460
usemtl Brown
s off
f 1/1/1 2/2/1 4/3/1 3/4/1
f 3/4/2 4/3/2 8/5/2 7/6/2
f 7/6/3 8/5/3 6/7/3 5/8/3
f 5/8/4 6/7/4 2/9/4 1/10/4
f 3/11/5 7/6/5 5/8/5 1/12/5
f 8/5/6 4/13/6 2/14/6 6/7/6
o TableTop_Cube.006
v 32.348560 0.315633 40.144073
v 32.348560 0.362883 40.144073
v 32.348560 0.315633 39.808823
v 32.348560 0.362883 39.808823
v 34.301800 0.315633 40.144073
v 34.301800 0.362883 40.144073
v 34.301800 0.315633 39.808823
v 34.301800 0.362883 39.808823
v 32.348560 0.315633 39.775295
v 32.348560 0.362883 39.775295
v 32.348560 0.315633 39.440044
v 32.348560 0.362883 39.440044
v 34.301800 0.315633 39.775295
v 34.301800 0.362883 39.775295
v 34.301800 0.315633 39.440044
v 34.301800 0.362883 39.440044
v 32.348560 0.315633 39.406521
v 32.348560 0.362883 39.406521
v 32.348560 0.315633 39.071266
v 32.348560 0.362883 39.071266
v 34.301800 0.315633 39.406521
v 34.301800 0.362883 39.406521
v 34.301800 0.315633 39.071266
v 34.301800 0.362883 39.071266
vt 0.375000 0.000000
vt 0.625000 0.000000
vt 0.625000 0.250000
vt 0.375000 0.250000
vt 0.625000 0.500000
vt 0.375000 0.500000
vt 0.625000 0.750000
vt 0.375000 0.750000
vt 0.625000 1.000000
vt 0.375000 1.000000
vt 0.125000 0.500000
vt 0.125000 0.750000
vt 0.875000 0.500000
vt 0.875000 0.750000
vt 0.375000 0.000000
vt 0.625000 0.000000
vt 0.625000 0.250000
vt 0.375000 0.250000
vt 0.625000 0.500000
vt 0.375000 0.500000
vt 0.625000 0.750000
vt 0.375000 0.750000
vt 0.625000 1.000000
vt 0.375000 1.000000
vt 0.125000 0.500000
vt 0.125000 0.750000
vt 0.875000 0.500000
vt 0.875000 0.750000
vt 0.375000 0.000000
vt 0.625000 0.000000
vt 0.625000 0.250000
vt 0.375000 0.250000
vt 0.625000 0.500000
vt 0.375000 0.500000
vt 0.625000 0.750000
vt 0.375000 0.750000
vt 0.625000 1.000000
vt 0.375000 1.000000
vt 0.125000 0.500000
vt 0.125000 0.750000
vt 0.875000 0.500000
vt 0.875000 0.750000
vn -1.0000 0.0000 0.0000
vn 0.0000 0.0000 -1.0000
vn 1.0000 0.0000 0.0000
vn 0.0000 0.0000 1.0000
vn 0.0000 -1.0000 0.0000
vn 0.0000 1.0000 0.0000
usemtl Brown
s off
f 9/15/7 10/16/7 12/17/7 11/18/7
f 11/18/8 12/17/8 16/19/8 15/20/8
f 15/20/9 16/19/9 14/21/9 13/22/9
f 13/22/10 14/21/10 10/23/10 9/24/10
f 11/25/11 15/20/11 13/22/11 9/26/11
f 16/19/12 12/27/12 10/28/12 14/21/12
f 17/29/7 18/30/7 20/31/7 19/32/7
f 19/32/8 20/31/8 24/33/8 23/34/8
f 23/34/9 24/33/9 22/35/9 21/36/9
f 21/36/10 22/35/10 18/37/10 17/38/10
f 19/39/11 23/34/11 21/36/11 17/40/11
f 24/33/12 20/41/12 18/42/12 22/35/12
f 25/43/7 26/44/7 28/45/7 27/46/7
f 27/46/8 28/45/8 32/47/8 31/48/8
f 31/48/9 32/47/9 30/49/9 29/50/9
f 29/50/10 30/49/10 26/51/10 25/52/10
f 27/53/11 31/48/11 29/50/11 25/54/11
f 32/47/12 28/55/12 26/56/12 30/49/12
o Leg.001_Cube.026
v 32.487000 -0.399256 39.263557
v 32.487000 0.327451 39.750336
v 32.487000 -0.405043 39.389122
v 32.487000 0.321664 39.875900
v 32.388420 -0.399256 39.263557
v 32.388420 0.327451 39.750336
v 32.388420 -0.405043 39.389122
v 32.388420 0.321664 39.875900
vt 0.375000 0.000000
vt 0.625000 0.000000
vt 0.625000 0.250000
vt 0.375000 0.250000
vt 0.625000 0.500000
vt 0.375000 0.500000
vt 0.625000 0.750000
vt 0.375000 0.750000
vt 0.625000 1.000000
vt 0.375000 1.000000
vt 0.125000 0.500000
vt 0.125000 0.750000
vt 0.875000 0.500000
vt 0.875000 0.750000
vn 1.0000 0.0000 0.0000
vn 0.0000 -0.5565 0.8308
vn -1.0000 0.0000 0.0000
vn 0.0000 0.5565 -0.8308
vn 0.0000 -0.9989 -0.0460
vn 0.0000 0.9989 0.0460
usemtl Brown
s off
f 33/57/13 34/58/13 36/59/13 35/60/13
f 35/60/14 36/59/14 40/61/14 39/62/14
f 39/62/15 40/61/15 38/63/15 37/64/15
f 37/64/16 38/63/16 34/65/16 33/66/16
f 35/67/17 39/62/17 37/64/17 33/68/17
f 40/61/18 36/69/18 34/70/18 38/63/18
o Leg.002_Cube.027
v 34.202343 -0.399256 39.943161
v 34.202343 0.327451 39.456383
v 34.202343 -0.405043 39.817596
v 34.202343 0.321664 39.330818
v 34.300922 -0.399256 39.943161
v 34.300922 0.327451 39.456383
v 34.300922 -0.405043 39.817596
v 34.300922 0.321664 39.330818
vt 0.375000 0.000000
vt 0.625000 0.000000
vt 0.625000 0.250000
vt 0.375000 0.250000
vt 0.625000 0.500000
vt 0.375000 0.500000
vt 0.625000 0.750000
vt 0.375000 0.750000
vt 0.625000 1.000000
vt 0.375000 1.000000
vt 0.125000 0.500000
vt 0.125000 0.750000
vt 0.875000 0.500000
vt 0.875000 0.750000
vn -1.0000 0.0000 0.0000
vn 0.0000 -0.5565 -0.8308
vn 1.0000 0.0000 0.0000
vn 0.0000 0.5565 0.8308
vn 0.0000 -0.9989 0.0460
vn 0.0000 0.9989 -0.0460
usemtl Brown
s off
f 41/71/19 42/72/19 44/73/19 43/74/19
f 43/74/20 44/73/20 48/75/20 47/76/20
f 47/76/21 48/75/21 46/77/21 45/78/21
f 45/78/22 46/77/22 42/79/22 41/80/22
f 43/81/23 47/76/23 45/78/23 41/82/23
f 48/75/24 44/83/24 42/84/24 46/77/24
o Leg.003_Cube.028
v 34.300922 -0.399256 39.263557
v 34.300922 0.327451 39.750336
v 34.300922 -0.405043 39.389122
v 34.300922 0.321664 39.875900
v 34.202343 -0.399256 39.263557
v 34.202343 0.327451 39.750336
v 34.202343 -0.405043 39.389122
v 34.202343 0.321664 39.875900
vt 0.375000 0.000000
vt 0.625000 0.000000
vt 0.625000 0.250000
vt 0.375000 0.250000
vt 0.625000 0.500000
vt 0.375000 0.500000
vt 0.625000 0.750000
vt 0.375000 0.750000
vt 0.625000 1.000000
vt 0.375000 1.000000
vt 0.125000 0.500000
vt 0.125000 0.750000
vt 0.875000 0.500000
vt 0.875000 0.750000
vn 1.0000 0.0000 0.0000
vn 0.0000 -0.5565 0.8308
vn -1.0000 0.0000 0.0000
vn 0.0000 0.5565 -0.8308
vn 0.0000 -0.9989 -0.0460
vn 0.0000 0.9989 0.0460
usemtl Brown
s off
f 49/85/25 50/86/25 52/87/25 51/88/25
f 51/88/26 52/87/26 56/89/26 55/90/26
f 55/90/27 56/89/27 54/91/27 53/92/27
f 53/92/28 54/91/28 50/93/28 49/94/28
f 51/95/29 55/90/29 53/92/29 49/96/29
f 56/89/30 52/97/30 50/98/30 54/91/30
